<svg width="18" height="20" viewBox="0 0 18 20" fill="none" xmlns="http://www.w3.org/2000/svg">
<path d="M6.80944 1.94391L1.8154 7.25007C1.29164 7.80657 1 8.54196 1 9.30617V15.2981C1 16.8823 2.23176 18.1934 3.81287 18.2922L9 18.6164L14.1855 18.2923C15.7672 18.1935 16.9993 16.8813 16.9983 15.2964L16.9947 9.31144C16.9943 8.54785 16.7027 7.81318 16.1793 7.25713L11.1786 1.9439C9.99413 0.685364 7.99395 0.685367 6.80944 1.94391Z" fill="#F5BC50" stroke="#F5BC50" stroke-linecap="round"/>
<path d="M6 15.1166V12.5181C6 12.1705 6.18051 11.8478 6.47674 11.6659L8.47674 10.4379C8.79774 10.2408 9.20226 10.2408 9.52326 10.4379L11.5233 11.6659C11.8195 11.8478 12 12.1705 12 12.5181V15.1166" stroke="white" stroke-linecap="round"/>
</svg>
