<svg width="108" height="38" viewBox="0 0 108 38" fill="none" xmlns="http://www.w3.org/2000/svg">
<rect x="0.800049" width="106.4" height="38" rx="19" fill="#FF5656"/>
<path d="M45.7636 24.6001H44.0707V12.4933H47.9524C48.5338 12.4933 49.0867 12.556 49.6111 12.6814C50.1355 12.7954 50.5915 12.9835 50.9791 13.2457C51.3781 13.5079 51.6916 13.8556 51.9196 14.2888C52.1476 14.7106 52.2616 15.2293 52.2616 15.8449C52.2616 16.7341 51.988 17.4523 51.4408 17.9995C50.8936 18.5467 50.1868 18.8944 49.3204 19.0426L52.7062 24.6001H50.6542L47.5762 19.2136H45.7636V24.6001ZM45.7636 17.7943H47.713C48.112 17.7943 48.4825 17.7601 48.8245 17.6917C49.1665 17.6233 49.4629 17.515 49.7137 17.3668C49.9759 17.2072 50.1811 17.0077 50.3293 16.7683C50.4775 16.5175 50.5516 16.2097 50.5516 15.8449C50.5516 15.4801 50.4775 15.178 50.3293 14.9386C50.1811 14.6878 49.9816 14.4883 49.7308 14.3401C49.4914 14.1919 49.2064 14.0893 48.8758 14.0323C48.5452 13.9639 48.1975 13.9297 47.8327 13.9297H45.7636V17.7943ZM60.2223 19.8292C60.2109 19.51 60.1539 19.2136 60.0513 18.94C59.9601 18.655 59.8176 18.4099 59.6238 18.2047C59.4414 17.9995 59.2077 17.8399 58.9227 17.7259C58.6491 17.6005 58.3242 17.5378 57.948 17.5378C57.606 17.5378 57.2811 17.6005 56.9733 17.7259C56.6769 17.8399 56.4147 17.9995 56.1867 18.2047C55.9701 18.4099 55.7877 18.655 55.6395 18.94C55.5027 19.2136 55.4229 19.51 55.4001 19.8292H60.2223ZM61.8468 20.479C61.8468 20.5702 61.8468 20.6614 61.8468 20.7526C61.8468 20.8438 61.8411 20.935 61.8297 21.0262H55.4001C55.4115 21.3682 55.4856 21.6931 55.6224 22.0009C55.7706 22.2973 55.9644 22.5595 56.2038 22.7875C56.4432 23.0041 56.7168 23.1751 57.0246 23.3005C57.3438 23.4259 57.6801 23.4886 58.0335 23.4886C58.5807 23.4886 59.0538 23.3689 59.4528 23.1295C59.8518 22.8901 60.1653 22.5994 60.3933 22.2574L61.5219 23.1637C61.0887 23.7337 60.5757 24.1555 59.9829 24.4291C59.4015 24.6913 58.7517 24.8224 58.0335 24.8224C57.4179 24.8224 56.8479 24.7198 56.3235 24.5146C55.7991 24.3094 55.3488 24.0244 54.9726 23.6596C54.5964 23.2834 54.3 22.8331 54.0834 22.3087C53.8668 21.7843 53.7585 21.2029 53.7585 20.5645C53.7585 19.9375 53.8611 19.3618 54.0663 18.8374C54.2829 18.3016 54.5793 17.8456 54.9555 17.4694C55.3317 17.0932 55.7763 16.8025 56.2893 16.5973C56.8023 16.3807 57.3552 16.2724 57.948 16.2724C58.5408 16.2724 59.0766 16.3693 59.5554 16.5631C60.0456 16.7569 60.456 17.0362 60.7866 17.401C61.1286 17.7658 61.3908 18.2104 61.5732 18.7348C61.7556 19.2478 61.8468 19.8292 61.8468 20.479ZM65.6985 28.7041H64.0911V16.4947H65.6643V17.7601H65.7156C65.9778 17.3269 66.3597 16.9735 66.8613 16.6999C67.3743 16.4149 67.9671 16.2724 68.6397 16.2724C69.2439 16.2724 69.7911 16.3807 70.2813 16.5973C70.7829 16.8139 71.2104 17.116 71.5638 17.5036C71.9286 17.8912 72.2079 18.3472 72.4017 18.8716C72.5955 19.3846 72.6924 19.9375 72.6924 20.5303C72.6924 21.1231 72.5955 21.6817 72.4017 22.2061C72.2079 22.7305 71.9343 23.1865 71.5809 23.5741C71.2275 23.9617 70.8 24.2695 70.2984 24.4975C69.7968 24.7141 69.2325 24.8224 68.6055 24.8224C68.0241 24.8224 67.4769 24.697 66.9639 24.4462C66.4509 24.1954 66.0462 23.842 65.7498 23.386H65.6985V28.7041ZM71.0337 20.5303C71.0337 20.1541 70.9767 19.7893 70.8627 19.4359C70.7487 19.0825 70.5777 18.769 70.3497 18.4954C70.1217 18.2218 69.8367 18.0052 69.4947 17.8456C69.1641 17.686 68.7765 17.6062 68.3319 17.6062C67.9215 17.6062 67.5453 17.686 67.2033 17.8456C66.8727 18.0052 66.5877 18.2218 66.3483 18.4954C66.1089 18.769 65.9208 19.0825 65.784 19.4359C65.6586 19.7893 65.5959 20.1598 65.5959 20.5474C65.5959 20.935 65.6586 21.3055 65.784 21.6589C65.9208 22.0123 66.1089 22.3258 66.3483 22.5994C66.5877 22.8616 66.8727 23.0725 67.2033 23.2321C67.5453 23.3917 67.9215 23.4715 68.3319 23.4715C68.7765 23.4715 69.1641 23.3917 69.4947 23.2321C69.8367 23.0611 70.1217 22.8388 70.3497 22.5652C70.5777 22.2916 70.7487 21.9781 70.8627 21.6247C70.9767 21.2713 71.0337 20.9065 71.0337 20.5303ZM83.1369 20.5303C83.1369 21.1573 83.0229 21.733 82.7949 22.2574C82.5783 22.7818 82.2705 23.2378 81.8715 23.6254C81.4839 24.0016 81.0222 24.298 80.4864 24.5146C79.9506 24.7198 79.3749 24.8224 78.7593 24.8224C78.1437 24.8224 77.568 24.7198 77.0322 24.5146C76.4964 24.298 76.0347 24.0016 75.6471 23.6254C75.2595 23.2378 74.9517 22.7818 74.7237 22.2574C74.5071 21.733 74.3988 21.1573 74.3988 20.5303C74.3988 19.9033 74.5071 19.3333 74.7237 18.8203C74.9517 18.2959 75.2595 17.8456 75.6471 17.4694C76.0347 17.0932 76.4964 16.8025 77.0322 16.5973C77.568 16.3807 78.1437 16.2724 78.7593 16.2724C79.3749 16.2724 79.9506 16.3807 80.4864 16.5973C81.0222 16.8025 81.4839 17.0932 81.8715 17.4694C82.2705 17.8456 82.5783 18.2959 82.7949 18.8203C83.0229 19.3333 83.1369 19.9033 83.1369 20.5303ZM81.4611 20.5303C81.4611 20.1427 81.3984 19.7722 81.273 19.4188C81.159 19.0654 80.988 18.7576 80.76 18.4954C80.532 18.2218 80.247 18.0052 79.905 17.8456C79.5744 17.686 79.1925 17.6062 78.7593 17.6062C78.3261 17.6062 77.9385 17.686 77.5965 17.8456C77.2659 18.0052 76.9866 18.2218 76.7586 18.4954C76.5306 18.7576 76.3539 19.0654 76.2285 19.4188C76.1145 19.7722 76.0575 20.1427 76.0575 20.5303C76.0575 20.9179 76.1145 21.2884 76.2285 21.6418C76.3539 21.9952 76.5306 22.3087 76.7586 22.5823C76.9866 22.8559 77.2659 23.0725 77.5965 23.2321C77.9385 23.3917 78.3261 23.4715 78.7593 23.4715C79.1925 23.4715 79.5744 23.3917 79.905 23.2321C80.247 23.0725 80.532 22.8559 80.76 22.5823C80.988 22.3087 81.159 21.9952 81.273 21.6418C81.3984 21.2884 81.4611 20.9179 81.4611 20.5303ZM85.3659 18.2389C85.3659 18.0223 85.3602 17.743 85.3488 17.401C85.3374 17.059 85.3203 16.7569 85.2975 16.4947H86.8194C86.8422 16.6999 86.8593 16.9393 86.8707 17.2129C86.8821 17.4751 86.8878 17.6917 86.8878 17.8627H86.9391C87.1671 17.3839 87.4977 17.002 87.9309 16.717C88.3755 16.4206 88.8714 16.2724 89.4186 16.2724C89.6694 16.2724 89.8803 16.2952 90.0513 16.3408L89.9829 17.8285C89.7549 17.7715 89.5098 17.743 89.2476 17.743C88.86 17.743 88.5237 17.8171 88.2387 17.9653C87.9537 18.1021 87.7143 18.2902 87.5205 18.5296C87.3381 18.769 87.2013 19.0483 87.1101 19.3675C87.0189 19.6753 86.9733 20.0002 86.9733 20.3422V24.6001H85.3659V18.2389ZM95.3281 17.8114H93.1735V22.0351C93.1735 22.5253 93.2647 22.8787 93.4471 23.0953C93.6295 23.3005 93.9202 23.4031 94.3192 23.4031C94.4674 23.4031 94.627 23.386 94.798 23.3518C94.969 23.3176 95.1229 23.2663 95.2597 23.1979L95.311 24.5146C95.1172 24.583 94.9006 24.6343 94.6612 24.6685C94.4332 24.7141 94.1938 24.7369 93.943 24.7369C93.1792 24.7369 92.5921 24.526 92.1817 24.1042C91.7827 23.6824 91.5832 23.0497 91.5832 22.2061V17.8114H90.0271V16.4947H91.5832V14.1691H93.1735V16.4947H95.3281V17.8114Z" fill="white"/>
<path d="M24.8091 20.8001H22.391V15.3001H24.8091V20.8001ZM24.8091 25.2001H22.391V23.0001H24.8091V25.2001ZM10.3 28.5001H36.9L23.6 7.6001L10.3 28.5001Z" fill="white"/>
</svg>
